<?xml version="1.0" encoding="utf-8"?>
<!-- Generator: Adobe Illustrator 19.2.1, SVG Export Plug-In . SVG Version: 6.00 Build 0)  -->
<svg version="1.1" id="Layer_1" xmlns="http://www.w3.org/2000/svg" xmlns:xlink="http://www.w3.org/1999/xlink" x="0px" y="0px"
	 viewBox="0 0 255.1 89.8" style="enable-background:new 0 0 255.1 89.8;" xml:space="preserve">
<g>
	<g style="fill: rgba(0,0,0,0.6)">
		<path d="M51.7,55.5c-1.8,0.4-3.8,0.6-6,0.6c-8.1,0-12.2-3.9-12.2-11.6c0-7.2,4.1-10.8,12.2-10.8c2.1,0,4.1,0.2,6,0.6v1.9
			c-1.8-0.4-3.7-0.6-5.6-0.6c-6.8,0-10.1,3-10.1,8.9c0,6.5,3.4,9.7,10.1,9.7c1.9,0,3.7-0.2,5.6-0.6V55.5z"/>
		<path d="M53.3,44.9c0-7.5,3.6-11.2,10.7-11.2c7.1,0,10.7,3.7,10.7,11.2c0,7.5-3.6,11.2-10.7,11.2C56.9,56.1,53.3,52.3,53.3,44.9z
			 M64,54.2c5.6,0,8.4-3.1,8.4-9.4c0-6.1-2.8-9.2-8.4-9.2c-5.6,0-8.4,3.1-8.4,9.2C55.5,51,58.3,54.2,64,54.2z"/>
		<path d="M77.8,56.1V33.7h1.6l0.3,2.9c3.7-1.9,6.9-2.9,9.7-2.9c4.9,0,7.3,2.4,7.3,7.1v15.4h-2.2V40.7c0-3.3-1.9-5-5.6-5
			c-2.7,0-5.6,0.9-8.8,2.8v17.6H77.8z"/>
		<path d="M100.9,56.1V33.7h1.6l0.3,2.9c3.7-1.9,6.9-2.9,9.7-2.9c4.9,0,7.3,2.4,7.3,7.1v15.4h-2.2V40.7c0-3.3-1.9-5-5.6-5
			c-2.7,0-5.6,0.9-8.8,2.8v17.6H100.9z"/>
		<path d="M142,45.4h-16.8c0,5.9,3.5,8.8,10.4,8.8c2,0,4-0.2,5.9-0.6v1.9c-2,0.4-4.4,0.6-7.2,0.6c-7.6,0-11.3-3.8-11.3-11.5
			c0-7.3,3.6-11,10.7-11C140.3,33.7,143.1,37.6,142,45.4z M125.2,43.4h14.7c0.3-5.2-1.9-7.8-6.8-7.8
			C128.1,35.5,125.5,38.2,125.2,43.4z"/>
		<path d="M163,55.5c-1.8,0.4-3.8,0.6-6,0.6c-8.1,0-12.2-3.9-12.2-11.6c0-7.2,4.1-10.8,12.2-10.8c2.1,0,4.1,0.2,6,0.6v1.9
			c-1.8-0.4-3.7-0.6-5.6-0.6c-6.8,0-10.1,3-10.1,8.9c0,6.5,3.4,9.7,10.1,9.7c1.9,0,3.7-0.2,5.6-0.6V55.5z"/>
		<path d="M167.6,30h1.4l0.4,3.6h5.6v1.9h-5.2v14.2c0,2.9,1.1,4.4,3.4,4.4h1.9v1.9h-1.8c-3.8,0-5.6-2-5.6-6V30z"/>
		<path d="M176.1,44.9c0-7.5,3.6-11.2,10.7-11.2c7.1,0,10.7,3.7,10.7,11.2c0,7.5-3.6,11.2-10.7,11.2
			C179.6,56.1,176.1,52.3,176.1,44.9z M186.7,54.2c5.6,0,8.4-3.1,8.4-9.4c0-6.1-2.8-9.2-8.4-9.2c-5.6,0-8.4,3.1-8.4,9.2
			C178.3,51,181.1,54.2,186.7,54.2z"/>
		<path d="M200.6,56.1V33.7h1.6l0.2,2.8c3-1.9,5.9-2.8,8.7-2.8c2.7,0,4.5,1,5.6,3.1c2.7-2.1,5.5-3.1,8.3-3.1c4.7,0,7.1,2.5,7.1,7.5
			v15h-2.2v-15c0-3.6-1.8-5.4-5.3-5.4c-2.7,0-5,1-7,2.9v17.5h-2.2V40.8c0-3.4-1.6-5.1-4.8-5.1c-2.8,0-5.3,1-7.7,2.9v17.5H200.6z"/>
		<path d="M254.9,45.4h-16.8c0,5.9,3.5,8.8,10.4,8.8c2,0,4-0.2,5.9-0.6v1.9c-2,0.4-4.4,0.6-7.2,0.6c-7.6,0-11.3-3.8-11.3-11.5
			c0-7.3,3.6-11,10.7-11C253.2,33.7,255.9,37.6,254.9,45.4z M238.1,43.4h14.7c0.3-5.2-1.9-7.8-6.8-7.8
			C241,35.5,238.4,38.2,238.1,43.4z"/>
	</g>
	<g style="fill: rgba(28,180,149,0);">
		<path d="M60.7,19.9c-0.3,0-0.5,0.4-0.8,0.2c0.2-0.1,0.2-0.3,0.2-0.5c0.2-0.2,0.4-0.4,0.5-0.7c0-0.2,0.1-0.4,0.1-0.7
			c-0.4,0.2-0.2,0.5-0.1,0.7c-0.6-0.5-0.5,0.3-0.8,0.4c-0.1,0.1-0.2,0.3-0.3,0.4c-0.3,0.1-0.6,0.2-0.4-0.3c0.2-0.6,0.6-1.1,0.8-1.6
			c0.1-0.4,0.9-0.8-0.2-1.1c-0.5-0.1-0.1-0.6,0-0.9c0.6-1.1-0.1-1.3-0.9-1.3c-0.4,0-0.8,0-0.7-0.4c0.6-1.6-0.7-2.2-1.4-3.2
			c0.2,0,0.3,0,0.5-0.1c0,0,0,0,0,0c-0.2,0-0.3,0.1-0.5,0.1c-0.5,0.4-0.8,0.1-1.2-0.2c-1.1-0.7-2.2-1.5-3.6-1.5l0,0
			c0-0.1,0-0.2,0-0.2c-1.3-0.2-2.6-0.7-3.9-0.4c-0.3,0.1-0.7-0.1-0.7,0.3c-0.1,0.4,0.6,0.1,0.5,0.6c-0.3,0.2-0.9,0-1.1,0.6
			c-0.2,0.5-0.5,0.3-0.7-0.1c-0.5-1-0.9-0.9-1.7-0.2c-0.5,0.4-1,1.1-1.9,1.2c-0.5,0-0.2,0.5-0.2,0.8c0.1,1.1,0.3,2.2-0.1,3.6
			c-0.4-1-0.5-1.8-0.7-2.8c-0.4,2,0.4,3.8,0,5.6c-0.8-1.5-0.5-3.3-1.2-4.8c0.2,1.7,0.3,3.3,0.5,5c-0.1,0-0.2,0-0.3,0
			c-0.2-1.2-0.5-2.4-0.7-3.6c-0.1-0.6-0.2-1.3-0.3-1.9c0-0.1,0-0.9-0.7-0.4c-0.4,0.3-0.6-0.2-0.6-0.5c0-1.4-1.3-1.3-2.1-1.5
			c-0.4-0.1-0.8-0.1-1-0.6c-0.3-1-0.7-0.2-1.1-0.1l0,0c-0.7,1.1-1.6,0.8-2.6,0.7c-0.8-0.1-1.6-0.3-2.3,0.4c-0.1,0.1-0.5,0.1-0.4,0.2
			c0.9,1-0.3,1.8-0.2,2.8c0,0,0,0.1,0,0.1c-1.3,1.3,0.1,2.1,0.4,3.2c0,0.1,0,0.2-0.1,0.6c-0.9-0.8-1.3-1.8-1.9-2.6
			c-0.8-1-2.8-0.8-3.4,0.3c-0.2,0.3-0.2,0.1-0.3,0.1c-0.2-0.1-2.8,1.1-2.8,1.3c0.2,0.9-0.7,0.6-0.9,0.8c-0.7,0.7-1.6,1.1-2.2,1.9
			c-0.4,0.5-0.9,1.2-1.7,1.4c-0.1-0.1-0.1-0.3-0.3-0.2c-0.2,0.1,0,0.2,0.1,0.4c0,0.3,0.1,0.6-0.3,0.8C15.1,21.9,15,22,14.8,22
			c1.1,1.4-0.8,1.4-1.1,2.1c-0.2,0.4,0.3,1.4-0.8,1c0,0,0,0,0,0c-1.4-1.1,0.6-1.4,0.5-2.3c0-0.1,0.4-0.2,0.2-0.5
			c-0.2-0.5-0.1-0.7,0.5-0.7c0.6,0,1.2-0.8,1.2-1.1c0.2-1.3,1.4-1.9,1.9-3c0.3-0.7,1.4-0.8,1.1-1.8c0-0.1,0.1-0.2,0.1-0.3
			c0.9,0.5,1.1-0.6,1.7-0.7c0.1,0.1,0.2,0.2,0.3,0.2c0,0.2,0,0.6,0.4,0.4c0.2-0.1,0.1-0.4-0.2-0.6c-0.1-0.1-0.1-0.2-0.2-0.3
			c0-0.3-0.6-0.7-0.1-0.9c0.9-0.4,0.8,0.8,1.5,1c0.4-0.5-0.1-0.7-0.3-0.9c-0.1-0.3-0.4-0.6-0.1-0.8c0.3-0.3,0.6,0,0.9,0.3
			c0.2,0.2,0.1,0.7,0.7,0.7c0.1-0.7-0.5-1.1-0.7-1.6c-0.5-1.1,1.3-0.1,0.9-1.1c-0.6-1.4,0.7-0.3,1-0.7c-0.1-1-1.1-1.6-1.1-2.6
			c0.1,0,0.2-0.1,0.3-0.1c0.3,0.4,0.7,0.7,1,1.1c0.2,0.5,0.4,1,1.1,1.4c-0.2-0.8-0.4-1.3-0.8-1.7c0.1-0.6,0.3-1,0.8-0.2
			c0.2,0.4,0.5,0.7,0.8,1c0.5-0.3-0.1-1,0.5-1.1c0.6-0.1,0.6,0.6,0.9,1c0.3,0.4,0.4,0.9,1,0.3c0.6-0.6,0.7,0.3,1.1,0.5
			c0.1-0.6-0.7-1.8,0.8-1.4c0.2,0.1,0.1-0.4,0.1-0.7c0-0.3-0.1-0.6,0.2-0.6c0.3-0.1,0.4,0.2,0.5,0.5c0.2,0.4,0.3,0.8,0.6,1.4
			c0.3-0.7-0.1-1.2-0.2-1.7c0-0.3-0.3-0.7,0.1-0.9c0.5-0.2,0.5,0.4,0.7,0.6c0.1,0.1,0.2,0.3,0.3,0.4c0.1,0.3-0.1,0.8,0.3,1.1
			c0.5-0.5-0.1-0.8-0.1-1.1c0.1-0.8,0.4-1.2,1.2-0.1c0.2-0.6,0.1-1,0-1.4c-0.1-0.2-0.2-0.5,0.1-0.7c0.4-0.2,0.5,0.1,0.6,0.4
			c0.1,0.4,0.2,0.7,0.5,1.3c0.4-0.9-0.1-1.5-0.1-2.2c0-0.3-0.1-0.7,0.3-0.8c0.4-0.1,0.4,0.3,0.5,0.6c0.2,0.6,0.2,1.3,0.7,2
			c0.3-1.6-0.6-3.1-0.2-4.6c0.9,1.7,1,3.6,1.6,5.3c0.2-2.3-0.6-4.6-0.3-6.9c0.8,2.2,1.1,4.5,1.6,6.8c0.3-2.5-0.6-5-0.2-7.3
			c0.7,0.9,0.6,2.1,0.8,3.3c0.2,1.2,0.4,2.5,0.7,3.7c0-2.4,0-4.7,0-7.1c0.7,2.3,0.9,4.6,1.1,7.3c0.5-0.9,0.3-1.5,0.3-2.1
			c0-0.6,0-1.2-0.1-1.8c0-0.3,0-0.7,0.3-0.8c0.5,0,0.5,0.4,0.5,0.8c0.1,1.2,0.2,2.4,0.3,3.5c0.1,0,0.2,0,0.4,0c0-0.9,0-1.9,0-2.8
			c0-0.3,0-0.7,0.4-0.6c0.3,0,0.3,0.4,0.3,0.6C44.4,5,45,5.9,44.7,6.9c0.5-0.6,0.3-1.3,0.4-2c0.1-0.3,0-0.7,0.4-0.7
			c0.3,0,0.5,0.3,0.5,0.7c0,0.6,0,1.2,0,2c0.5-1.1,0.3-2.1,0.6-3.1c0.1-0.2,0-0.6,0.4-0.5c0.3,0,0.4,0.3,0.4,0.6
			c-0.1,1,0.2,2-0.1,2.9c0.3,0.1,0.3-0.1,0.4-0.3c0.1-0.5-0.2-1.4,0.6-1.3c0.6,0.1,0.4,0.9,0.4,1.5c0,0.1,0,0.2,0,0.4
			c0.6-0.2,0.1-1.3,0.9-1.2C50,6,50.2,6.5,49.9,7c0.5-1,1.6-1.1,2.6-0.7c0.5,0.2,1.2,1,2,0.2c0.4-0.4,0.7,0,0.7,0.4
			c0,0.4-0.1,0.9-0.2,1.3c0.2-0.4,0.4-0.8,0.6-1.2c0.2-0.3,0.5-0.6,0.8-0.3c0.3,0.5,0.4,0.4,0.8,0.1c0.4-0.4,0.7,0,0.7,0.5
			c0,0.4,0.2,0.4,0.5,0.6c0.9,0.6,1.2,0.4,1.6-0.5c0.1-0.2,0.3-0.3,0.5-0.2c0.3,0.1,0.2,0.4,0.1,0.7c-0.1,0.4-0.4,0.7-0.3,1.2
			c0.7-0.8,1-1.7,1.5-2.5C61.9,6.4,62,6,62.4,6.2c0.3,0.1,0.2,0.5,0.1,0.7c-0.2,0.6-0.5,1.3-0.9,2.2c0.7-0.4,0.8-0.9,1-1.2
			C62.8,7.6,63,7,63.4,7.2c0.5,0.2,0.2,0.7,0.1,1c-0.4,0.9-0.8,1.8-1.2,2.6c0.8-1.2,1.6-2.5,2.5-3.7C65,6.9,65,6.3,65.5,6.5
			c0.6,0.2,0,0.7,0.1,1c-0.5,0.8-1.1,1.6-1.3,2.6c0.7-0.7,1.3-1.4,1.6-2.3c0.5-0.5,1-1.1,1.6-1.7c0.1,0.9-0.6,1.4-0.7,2.2
			c0,0.1-0.1,0.2-0.1,0.3c-0.2,0.1-0.3,0.3-0.3,0.5c-0.2,0.1-0.3,0.3-0.3,0.5c-0.3,0.2-0.5,0.4-0.5,0.8c-0.1,0.1-0.2,0.3,0,0.4
			c0,0,0.1-0.2,0.2-0.3c0.4-0.1,0.5-0.4,0.5-0.8c0.2-0.1,0.3-0.3,0.3-0.5C66.8,9.2,67,9,67,8.8c0.1,0,0.2-0.1,0.2-0.2
			c0.7-0.2,0.8-1.3,1.7-1.4c-0.3,1.5-1.5,2.5-1.9,3.8c-0.3,0.1-0.5,0.3-0.4,0.6c0,0,0.1,0.1,0.2,0.1c0.3-0.1,0.4-0.3,0.4-0.6
			c1-1,1.7-2.3,3-3.3c-0.2,1.5-1.2,2.3-1.8,3.3c-0.9,1.5-1.1,1.6,0,2.6c0.7,0.6,0.4,1,0.2,1.5c-0.2,0.4-0.4,0.9-0.7,1.3
			c-0.3,0.4-0.8,0.7-1.2,0.3c-1.1-0.9-1.9-0.5-2.7,0.4c-0.7,0.9-1.4,1.8-2.2,2.6c-0.2,0.2-0.4,0.9-0.8,0.2c0-0.1,0.1-0.4,0.1-0.4
			C60.8,19.4,60.8,19.7,60.7,19.9z M26.9,9.7c-0.1-0.2-0.1-0.4-0.4-0.2c-0.1,0.1,0,0.3,0.1,0.4c0,0.3,0.1,0.5,0.4,0.5
			c0,0.4-0.1,0.8,0.4,1c0.4-0.5,0-0.8-0.3-1C27.1,10,27.1,9.8,26.9,9.7z M25,11.8c-0.1-0.1,0-0.4-0.2-0.2c-0.2,0.1,0,0.2,0.1,0.4
			c0.1,0.2,0.1,0.4,0.2,0.6c0.1,0,0.3-0.1,0.3-0.1C25.3,12.1,25.3,11.9,25,11.8z M26.3,11.8c-0.2-0.6-0.2-1.3-0.9-1.8
			C25.4,10.8,26,11.3,26.3,11.8z M19.8,15.7c-0.1,0-0.3,0-0.2,0.1c0.1,0.2,0.2,0.3,0.3,0.5c0.1-0.1,0.2-0.1,0.2-0.2
			C20.2,16,20.1,15.8,19.8,15.7z M34.5,8.4c0.4-0.5,0.2-0.7-0.1-1C34.3,7.7,34.3,8,34.5,8.4z M24.5,11.4c0-0.1,0.2-0.1,0.2-0.2
			c0-0.2-0.1-0.4-0.3-0.5c-0.2-0.1-0.3,0.1-0.3,0.2C24.1,11.2,24.3,11.3,24.5,11.4z M35.8,7.3c-0.1,0.2-0.2,0.3-0.2,0.4
			c0,0.1,0,0.4,0.2,0.3c0.1,0,0.1-0.2,0.1-0.3C35.9,7.6,35.8,7.5,35.8,7.3z M30.8,8.8c-0.1,0.2-0.2,0.3-0.2,0.4
			c0,0.1,0.1,0.2,0.1,0.3C30.9,9.5,31,9.4,31,9.2C31,9.1,30.9,9,30.8,8.8z M28.4,9.9c-0.1,0.2-0.2,0.3-0.1,0.4
			c0,0.1,0.1,0.2,0.1,0.3c0.1-0.1,0.2-0.2,0.2-0.3C28.6,10.2,28.5,10.1,28.4,9.9z M37,7.7c0.1-0.2,0.2-0.3,0.2-0.4
			c0-0.1-0.1-0.1-0.1-0.2c-0.1,0.1-0.2,0.1-0.2,0.2C36.9,7.5,37,7.6,37,7.7z"/>
		<path d="M9.2,57.8c-0.1,0-0.3,0-0.4,0c-0.5-0.1-1.3,0.9-1.5,0.1c-0.2-0.6,0.9-0.5,1.4-0.9c0.4-0.3,1-0.2,1.3-0.9
			c-1,0.3-2,0.7-3.1,1c-0.3,0.1-0.8,0.5-1-0.1c-0.1-0.4,0.4-0.5,0.8-0.7C7.4,56,8.2,55.7,9,55.4c0.3-0.1,0.6-0.1,0.4-0.4
			c-0.2-0.3-0.4-0.1-0.6,0c-0.7,0.3-1.5,0.5-2.2,0.7c-0.2,0.1-0.6,0.2-0.7-0.1c-0.2-0.4,0.2-0.5,0.5-0.6c0.9-0.3,1.9-0.7,2.8-1.1
			C6.7,54,4.5,55,2,55c2.2-1.2,4.7-1.5,6.9-2.5c-2.5,0.1-5,1.1-7.6,1.1c2.2-1.2,4.8-1.3,7.1-2.4c-2.6,0.2-5.2,1-7.9,0.9
			c2.5-1.1,5.1-1.3,7.7-2.2C5.6,50,3,50.9,0,50.7c2.8-1.2,5.6-1.2,8.2-2c-0.8-0.3-1.6,0-2.4,0.1c-1,0.1-2.1,0.3-3.1,0.4
			c-0.2,0-0.6,0.1-0.7-0.2c-0.1-0.5,0.3-0.4,0.6-0.5c1.5-0.2,3.1-0.5,4.6-0.7c0.2,0,0.5,0.1,0.7-0.4c-0.7-0.2-1.4,0-2.1,0
			c-0.3,0-0.7,0.1-0.7-0.3c0-0.5,0.4-0.4,0.6-0.5c0.5-0.2,1.1-0.2,1.7-0.1c0.2,0,0.5-0.1,0.5-0.3c0-0.2-0.2-0.3-0.5-0.3
			c-0.5,0.1-1,0.1-1.6,0.1c-0.2,0-0.5,0-0.5-0.3c0-0.3,0.1-0.5,0.4-0.5c0.7-0.1,1.4-0.1,2.2-0.2c-0.6-0.8-1.3-0.1-1.8-0.3
			c-0.7-0.2-2,0.3-2-0.5c0-0.8,1.2-0.2,1.9-0.4c0.6-0.2,1.3,0.2,1.9-0.5c-1.4-0.1-2.5-0.1-3.7-0.2c-0.4,0-1.1,0.2-1.1-0.3
			c0-0.7,0.8-0.4,1.2-0.4c0.9,0,1.8,0,2.7,0c0.3,0,0.7,0.2,0.8-0.2c0-0.5-0.4-0.2-0.7-0.3c-1.8-0.1-3.6-0.3-5.3-0.4
			c-0.3,0-0.5,0-0.8-0.5c2.3-0.4,4.6,0.2,6.8-0.2c-2.4-0.7-5.1-0.3-7.5-1.3c2.5-0.3,5.1,0.1,7.6,0.1c-1.2-0.6-2.6-0.5-3.8-0.7
			c-1.3-0.3-2.7-0.2-3.9-0.9c2.6-0.3,5.2,0.3,7.9,0.3c-2.4-0.7-4.9-0.8-7.4-1.6c0.6-0.5,1.1-0.3,1.5-0.2c4.2,0.6,8.5,1.1,12.7,2
			c0.3,0.1,0.7,0.1,0.7,0.4c-0.1,0.5-0.5,0.3-0.8,0.2c-0.5,0-1-0.1-1.6-0.1c2.9,0.9,5.9,0.9,8.8,1.7c-2.4,0.2-4.7-0.5-7.1-0.5
			c-0.7,0-1.3-0.3-1.9,0.3c-0.2,0.2-0.4,0.1-0.6,0c-0.1-0.1-0.1-0.4,0-0.5c0.1-0.1,0.4-0.2,0.4-0.2c1,0.8,2.2,0.6,3.3,0.9
			c0.1,0,0.2,0.2,0.5,0.4c-0.5,0.3-1,0.2-1.5,0.1c-0.8-0.2-1.6-0.3-2.3,0.2c-0.2,0.1-0.4,0.2-0.6,0c-0.1-0.1-0.1-0.3,0-0.3
			c0.1-0.2,0.4-0.2,0.6,0c0.4,0.4,1.1,0.3,1.4,0.9c-0.5,0.4-1,0.2-1.4,0.2c-0.5,0-1.1-0.1-0.9,0.8c-1,0.1-0.5,1.6-1.6,1.6
			c-0.5,0-0.5,0.3-0.5,0.7c-0.1,1.6,0.4,2.1,2,1.9c0.5,0,1-0.1,1.4-0.1c0.3,0,0.6,0,0.5,0.4c-0.2,0.9,0.3,0.5,0.7,0.5
			c2.5-0.3,5-0.9,7.6-0.8c-2.8,0.9-5.8,0.9-8.2,1.8c2.6,0,5.3-1.1,8.2-0.9c-2.8,0.6-5.5,1.3-8.3,1.9c2.8-0.1,5.5-1,8.3-1.3
			c-2.6,1.1-5.4,1.3-7.9,2.4c0.5,0.4,1.3-0.6,1.5,0.1c0.1,0.7-0.9,0.5-1.4,0.8c-0.2,0.1-0.3,0.2-0.5,0.2c-0.5,0.1-1.2,0.1-1.3,0.6
			c-0.1,0.5,0.1,1.1,0.8,1.3c0.1,0,0.1,0.2,0.2,0.3c-1,0.4-0.2,1.8-1.2,2.1c-1.1,0.4-0.5,1.3-0.2,1.4c0.9,0.4,0.7,1.2,1,1.8
			c0.4,1,0.9,1.9,1.5,2.8c0.5,0.7,1.7,1.1,0.8,2.3c0,0.1,0,0.2,0,0.2c0.3,0.4,0.8,0.8,0.1,1.2c-0.8,0.5-0.8-0.2-0.9-0.7
			c0,0-0.2,0-0.3,0c-0.3,0.1-0.8,0.6-1,0c-0.2-0.5,0.4-0.8,0.8-1c0.1-0.1,0.2-0.2,0.3-0.3c-0.4-0.3-0.6,0.1-0.9,0.2
			c-0.5,0.2-1.4,1.1-1-0.5c0.1-0.3-0.5-1.3-0.8-1.4c-1.1-0.5-0.6-0.7,0-1.1c0.2-0.2,0.6-0.2,0.6-0.6c-0.3-0.3-0.5,0.1-0.8,0.2
			c-0.4,0.1-0.7,0.5-1.1,0.1c-0.3-0.4,0.4-0.6,0.4-1c-0.4-0.3-1.8,0.5-0.9-1c0.1-0.2-1-0.6-0.4-1.3c0.4-0.1,0.9,0,1.2-0.6
			C9.9,57.3,9.5,57.5,9.2,57.8z M12.9,63.6c0.2,0,0.4,0,0.5-0.3c0-0.1-0.1-0.2-0.2-0.2c-0.2-0.1-0.4,0.1-0.5,0.3
			C12.6,63.6,12.8,63.5,12.9,63.6z M12.5,62.3c0.1-0.3-0.1-0.3-0.1-0.3c-0.1,0.1-0.3,0.1-0.4,0.3c-0.1,0.2,0.1,0.2,0.2,0.2
			C12.3,62.5,12.5,62.4,12.5,62.3z"/>
		<path d="M66.5,78.2c0,0.7,0.6,1.1,0.8,1.7c0.1,0.4,0.5,0.8,0,1c-0.4,0.2-0.6-0.3-0.7-0.5c-0.5-0.7-0.9-1.4-1.4-2.1
			c-0.1-0.2-0.2-0.4-0.3-0.6c-0.7-0.8-0.7,0.9-1.4,0.3c-0.2-0.2-0.2-1.3-1-0.4c-0.8,0.8-2.1,0.6-3.2,0.7c-0.8,0.1-1.7-0.1-1.7,1.2
			c0,0.2-1.3,0.7-1.8,0.5c-0.9-0.3-1.4-0.1-2,0.5c-0.4,0.4-1.1,0.4-1.4,0.4c-0.9,0.1-1.1,0.4-1,1.2c0,0.3-0.3,0.4-0.4,0.3
			c-0.8-1.3-2.4-0.1-3.3-1c-0.6,0.7-1.3-0.4-2,0.2c-0.3,0.3-0.6-0.2-0.9-0.5c-0.4,2.7,0.1,5.4-0.6,8.4c-0.8-3-0.1-5.7-0.6-8.4
			c-0.6,2.6-0.2,5.2-0.9,7.7c-0.8-2.6,0-5.3-0.5-7.9c-0.3,2.4-0.5,4.8-0.8,7.1c-0.1,0-0.3,0-0.4,0c-0.5-2.6,0.5-5.1,0-7.7
			C40.5,81,40.8,82,40,81.9c-0.9-0.1-0.3-1.1-0.5-1.7c-0.2,0.7-0.1,1.8-0.8,1.7c-0.8-0.1-0.3-1.1-0.5-1.7c-0.1,0.4-0.1,1-0.6,1.1
			c-0.6,0.1-0.4-0.7-0.6-0.7c-1-0.2-1.7-1.4-2.8-1.1c-0.8,0.2-1.2-0.8-2.1-0.6c-0.1,0-0.2-0.3-0.4-0.1c-0.4,0.3-0.8,0.5-1-0.1
			c-0.1-0.5,0-1.1,0.6-1.5c0.3-0.2,0.7-0.1,0.7,0.2c0,0.6,0.5,0.5,0.8,0.7c0.6,0.4,1.3,0.4,2,0.8c0.8,0.5,1.9,0.2,2.7-0.5
			c0.6-0.5,1.2-0.1,1.8-0.1c1.1,0,1.8-0.3,2-1.5c0.2-0.9,0.3-1.8,0.5-2.9c0.5,0.3,0.3,0.8,0.6,1c0.6,0,0.2-0.8,0.7-0.8
			c0.1,0.3,0.3,0.6,0.4,1c0.4-0.2,0.1-0.8,0.6-0.9c0.6,1.1,0.3,2.2,0.4,3.4c0.1,1.5,0.3,1.6,1.7,1.2c0.5-0.2,1.4,0.5,1.4-0.8
			c0-0.2,0.3,0.6,0.6,0.4c0.4-0.2,0.9-0.1,1.1-0.5c0.1-0.3,0.4-0.6,0.7-0.4c1,0.6,2,0.3,3,0.4c0.7,0.1,1-0.1,1.4-0.6
			c0.6-0.6,1-1.5,2.2-0.7c0.8,0.5,2.3-0.7,2.3-1.7c0-0.5,0.1-0.6,0.3-0.4c0.6,0.7,0.8,0,1-0.2c0.4-0.5,1.3-1.3,1-1.6
			c-0.7-0.7-0.3-1.7-1-2.4c-0.4-0.4-0.5-1-0.6-1.5c0.4-0.3,0.8,1.3,1.2-0.1c0-0.2,0.4,0.1,0.5,0.2c0.5,0.5,0.9,1,1.3,1.6
			c0.5,0.7,1.1,0.6,1.8,0.2c1.9-1.2,3.9-0.7,4.9,1.3c0.2,0.5-0.1,1.4-0.3,1.4c-1.1,0.2-0.6,0.6-0.3,1.1c0.2,0.2,0.2,0.5,0,0.7
			c-0.2,0.2-0.5,0.2-0.7,0c-0.8-1-0.9,0.4-1.5,0.5c-0.5,0.1,0,0.6,0.2,0.9c0.4,0.7,0.9,1.4,1.4,2.1c0.2,0.3,0.6,0.8,0.1,1.1
			c-0.4,0.3-0.6-0.3-0.9-0.6C67.1,78.9,67.1,78.3,66.5,78.2c0-0.2-0.1-0.3-0.1-0.4c0,0-0.1,0.1-0.1,0.1
			C66.3,78.1,66.3,78.2,66.5,78.2z"/>
		<path d="M17.8,71.2c-0.3,0-0.6,0.5-0.9,0.1c-0.3-0.4,0.1-0.5,0.3-0.8c0.2-0.3,0.4-0.4-0.2-0.7c-0.9-0.5-1.3-1.6-1.8-2.5
			c-0.2-0.3,0.1-0.5,0.3-0.7c0.3-0.2,2.3,0.4,2.2,0.7c0,0.9,1.1,0.5,1.3,1.1c0.8-0.5,1.2,0.2,1.4,0.7c0.3,0.7,1.1,1.2,1.6,1.5
			c1,0.4,0.9,0.7,0.4,1.4c-0.6,0.9,0.7,1.2,0.8,1.2c1,0,1.7,0.6,2.4,1.2c0.3,0.2,0.5,0.4,0.7,0.8c0.2,0.5,0.7,1,1.5,0.7
			c0.3-0.1,0.5-0.2,0.7,0.1c0.3,0.9,1,1.1,1.8,1.3c0.3,0.1,0.5,0.2,0.6,0.4c0.1,0.2,0,0.4-0.3,0.5c-0.3,0.1-0.5,0-0.7-0.2
			c-0.6-0.4-1.2-1.1-2.1-0.6c-0.1,0-0.4-0.2-0.5-0.3c-0.4-0.6-0.9-0.8-1.7-1c-1.1-0.2-2.1-0.8-2.8-1.7c-0.7-0.9-1.1-1.8-2.3-0.5
			C20.4,74,20.1,74.1,20,74c-0.2-0.1-0.2-0.4-0.1-0.6c0.3-0.5,0.6-0.9,1-1.5c-0.8,0.1-1,1.1-1.6,0.9c-0.3-0.1-0.1-0.5-0.1-0.8
			c0.2,0,0.2-0.1,0.2-0.3c0.2-0.1,0.5-0.2,0.5-0.5c0-0.1,0-0.3-0.2-0.2c-0.2,0.1-0.4,0.3-0.3,0.6c-0.2-0.1-0.3,0-0.3,0.2
			c-0.4,0-0.6,0.7-1.1,0.3c-0.3-0.3,0-0.5,0.1-0.8c0.2-0.1,0.4-0.2,0.3-0.4c0.1-0.1,0.2-0.2,0.3-0.3c0.3,0,0.3-0.1,0.4-0.4
			c0,0-0.1-0.1-0.2-0.1c-0.2,0-0.3,0.2-0.2,0.4c-0.2,0-0.3,0.1-0.3,0.3C18,70.7,17.9,70.9,17.8,71.2z M18.1,69.5
			c0-0.2-0.1-0.3-0.2-0.3c-0.1,0.1-0.3,0.2-0.3,0.3c-0.1,0.2,0,0.2,0.1,0.2C17.8,69.7,18,69.6,18.1,69.5z M23.9,74.2
			c-0.1,0.1-0.2,0.1-0.2,0.2c0,0.2,0,0.2,0.2,0.2c0.1,0,0.1-0.1,0.1-0.2C24,74.3,23.9,74.3,23.9,74.2z M17,68.8
			c0-0.1,0.1-0.2,0.2-0.3c0.1-0.2-0.1-0.2-0.2-0.2c-0.1,0-0.2,0.1-0.3,0.2C16.7,68.6,16.8,68.7,17,68.8z"/>
		<path d="M8.9,31.9c0.2,0.3,0.4,0.5,0.8,0.6c0.5,0.1,0.9,0.4,0.6,1.1c-0.3,0.6,0.4,0.4,0.6,0.6c0.5,0.3,1.5,0.1,1.2,1.3
			c-0.1,0.3,0.5,0.4,0.8,0.5c1.1,0.3,2.2,0.6,3.5,1c-0.4,0.2-0.5,0.3-0.6,0.3c-1.9-0.8-3.8,0-5.8-0.4c-0.9-0.2-2,0.3-3-0.4
			c0.6-0.5,1.3,0.2,1.9-0.5c-2.2-1.1-4.8-1.1-7-2.2c2.4,0,4.7,0.7,7.4,1.2c-1-0.9-2-0.8-2.8-1.2c-0.3-0.1-1-0.1-0.9-0.6
			c0.1-0.5,0.6-0.2,1-0.1c0.9,0.2,1.7,0.3,2.5,0.7C9.9,32.9,6.6,33,8.9,31.9L8.9,31.9z"/>
		<path d="M9,32c0-0.9,0.8-1.4,1.1-2.1c0.2-0.4-0.1-1.2,0.8-1.2l0,0c-0.1,0.3,0.4,0.6,0,0.9c-0.7,0.4-0.6,1.4-0.5,1.7
			c0.2,1.2-0.1,1.1-0.9,0.7C9.3,31.9,9.1,31.9,9,32C8.9,31.9,9,32,9,32z"/>
		<path d="M10.9,28.7c-0.1-1.5,0.7-2.9,2.1-3.5c0,0,0,0,0,0c-0.6,0,0,1.5-1.1,0.8c-0.1,0.5,0.3,0.5,0.5,0.7c0.1,0.2,0.3,0.5,0.2,0.5
			C11.3,27,11.7,28.5,10.9,28.7C10.9,28.6,10.9,28.7,10.9,28.7z"/>
		<path d="M53.5,10.3c0.1,0.1,0.2,0.1,0.3,0.2c0,0,0.2,0.2-0.1,0.2c-0.1,0-0.2-0.1-0.3-0.2C53.5,10.4,53.5,10.3,53.5,10.3z"/>
		<path d="M55.9,12c-0.1,0.1-0.1,0.2-0.2,0.2c-0.1-0.1-0.2-0.2-0.3-0.3c0.1,0,0.2-0.1,0.2-0.1C55.7,11.9,55.8,12,55.9,12z"/>
		<path d="M23.2,8c-0.4-0.2-0.5-0.5-0.5-1c0.6,0,0.7,0.4,0.8,0.9C23.4,7.9,23.3,7.9,23.2,8z"/>
		<path d="M34.1,10c0.2,0,0.4,0,0.6,0c-0.1,0.1-0.1,0.2-0.2,0.2C34.2,10.4,34.1,10.3,34.1,10L34.1,10z"/>
		<path d="M54.6,11.1c0.1,0,0.2,0,0.2,0.1c0.1,0.2-0.1,0.2-0.2,0.2c-0.1,0-0.1-0.1-0.2-0.1C54.5,11.1,54.5,11.1,54.6,11.1z"/>
		<path d="M51.9,9.3c-0.2,0.1-0.4,0.3-0.7,0.1C51.4,9,51.7,9.3,51.9,9.3C52,9.3,51.9,9.3,51.9,9.3z"/>
		<path d="M14.1,42.9C14.1,43,14.2,43,14.1,42.9c0,0.1,0,0.2-0.1,0.2C14,43.1,14,43,14.1,42.9C14,43,14.1,42.9,14.1,42.9z"/>
		<path d="M33.8,11.7c-0.1,0-0.2,0-0.3,0.1c0-0.1,0-0.1,0-0.2c0-0.1,0.1-0.1,0.2-0.1C33.7,11.5,33.7,11.6,33.8,11.7z"/>
		<path d="M11.2,46.3c0,0.1,0.1,0.2,0.1,0.2c0,0.1-0.1,0.1-0.1,0.2c0-0.1-0.1-0.1-0.1-0.2C11.1,46.4,11.2,46.4,11.2,46.3z"/>
		<path d="M29.3,14.1c0.1,0,0.1-0.1,0.2-0.1c0.1,0,0.1,0.1,0.2,0.1c-0.1,0-0.1,0.1-0.2,0.1C29.5,14.1,29.4,14.1,29.3,14.1z"/>
		<path d="M45.4,10.4c-0.1,0.1-0.1,0.1-0.2,0.2c0,0-0.1,0-0.1,0c0-0.1,0-0.1,0-0.2C45.3,10.3,45.3,10.3,45.4,10.4z"/>
		<path d="M36.1,12c-0.1,0-0.2-0.1-0.2-0.1c0-0.1,0.1-0.2,0.1-0.3c0.1,0,0.2,0.1,0.3,0.1C36.3,11.8,36.2,11.9,36.1,12z"/>
		<path d="M49.8,76.2c0.1,0,0.1,0,0.2,0c0,0,0,0.1,0,0.1C50,76.3,49.9,76.3,49.8,76.2C49.8,76.3,49.8,76.3,49.8,76.2z"/>
	</g>
</g>
</svg>
